<svg width="24" height="24" viewBox="0 0 24 24" fill="none" xmlns="http://www.w3.org/2000/svg">
<path d="M15.7007 16.7309V5.0985C15.7007 4.15172 14.9332 3.38422 13.9864 3.38422H2.91838C1.97162 3.38422 1.2041 4.15172 1.2041 5.0985V16.4568C1.2041 17.4036 1.97162 18.171 2.91838 18.171H4.2041M22.7959 11.4969H15.7031M20.489 17.8512H21.0799C22.0267 17.8512 22.7942 17.0837 22.7942 16.1369V10.9924L20.4072 6.10522C20.1197 5.5166 19.5219 5.14328 18.8667 5.14328H16.0099M14.7037 18.1707H9.66797M4.28914 18.2226C4.28914 18.8573 4.54128 19.4661 4.99008 19.9149C5.43888 20.3637 6.04758 20.6158 6.68229 20.6158C7.31699 20.6158 7.92569 20.3637 8.37449 19.9149C8.82329 19.4661 9.07543 18.8573 9.07543 18.2226C9.07543 17.5879 8.82329 16.9792 8.37449 16.5304C7.92569 16.0816 7.31699 15.8295 6.68229 15.8295C6.04758 15.8295 5.43888 16.0816 4.99008 16.5304C4.54128 16.9792 4.28914 17.5879 4.28914 18.2226ZM15.1526 18.2226C15.1526 18.8573 15.4047 19.4661 15.8535 19.9149C16.3023 20.3637 16.911 20.6158 17.5457 20.6158C18.1804 20.6158 18.7891 20.3637 19.2379 19.9149C19.6867 19.4661 19.9389 18.8573 19.9389 18.2226C19.9389 17.5879 19.6867 16.9792 19.2379 16.5304C18.7891 16.0816 18.1804 15.8295 17.5457 15.8295C16.911 15.8295 16.3023 16.0816 15.8535 16.5304C15.4047 16.9792 15.1526 17.5879 15.1526 18.2226Z" stroke="#0E1422" stroke-width="1.71429" stroke-linecap="round" stroke-linejoin="round"/>
</svg>
