<svg xmlns="http://www.w3.org/2000/svg" viewBox="0 0 32 32"><defs><style>.cls-1{fill:#231f20}</style></defs><g id="discussion"><path class="cls-1" d="m14.73 16.29-.16-.12a.56.56 0 0 0-.17-.09.6.6 0 0 0-.19-.06 1 1 0 0 0-.9.27 1.15 1.15 0 0 0-.21.33 1 1 0 0 0-.1.38 1.05 1.05 0 0 0 .29.71.93.93 0 0 0 .33.21A1 1 0 0 0 14 18h.19a.6.6 0 0 0 .19-.06.56.56 0 0 0 .17-.09l.16-.12A1.05 1.05 0 0 0 15 17a1 1 0 0 0-.08-.38 1.15 1.15 0 0 0-.19-.33zM10 16a1 1 0 0 0 0 2 1 1 0 0 0 1-1 1 1 0 0 0-1-1zM6.7 16.27a1 1 0 0 0-1.42 0 .93.93 0 0 0-.21.33A1 1 0 0 0 5 17a1 1 0 0 0 1 1 1 1 0 0 0 .38-.08 1 1 0 0 0 .33-.21A1.05 1.05 0 0 0 7 17a.84.84 0 0 0-.08-.38.93.93 0 0 0-.22-.35zM27 5H17a3 3 0 0 0-3 2.84 1 1 0 0 0 .33.92A1 1 0 0 0 16 8a1 1 0 0 1 1-1h10a1 1 0 0 1 1 1v6a1 1 0 0 1-.3.72.92.92 0 0 1-.7.28h-3a1 1 0 0 0-1 1v1.64l-1.31-1.32a1 1 0 0 0-1.42 1.42l3 3A1 1 0 0 0 24 21a1 1 0 0 0 .38-.07A1 1 0 0 0 25 20v-3h2a3 3 0 0 0 3-3V8a3 3 0 0 0-3-3z"/><path class="cls-1" d="M15 11H5a3 3 0 0 0-3 3v6a2.93 2.93 0 0 0 .89 2.13A3 3 0 0 0 5 23h2v3a1 1 0 0 0 .62.91A.84.84 0 0 0 8 27a1 1 0 0 0 .7-.29L12.47 23H15a3 3 0 0 0 3-3v-6a3 3 0 0 0-3-3zm1 9a1 1 0 0 1-1 1h-2.94a1 1 0 0 0-.7.29L9 23.63V22a1 1 0 0 0-1-1H5a1 1 0 0 1-.71-.29A1 1 0 0 1 4 20v-6a1 1 0 0 1 1-1h10a1 1 0 0 1 1 1z"/></g></svg>