<svg width="24" height="25" viewBox="0 0 24 25" fill="none" xmlns="http://www.w3.org/2000/svg">
<path fill-rule="evenodd" clip-rule="evenodd" d="M9.11604 7.58299C9.88092 6.81812 10.9183 6.38842 12 6.38842C13.0817 6.38842 14.1191 6.81812 14.884 7.58299C15.6488 8.34787 16.0785 9.38525 16.0785 10.4669C16.0785 11.5486 15.6488 12.586 14.884 13.3509C14.1191 14.1158 13.0817 14.5455 12 14.5455C10.9183 14.5455 9.88092 14.1158 9.11604 13.3509C8.35117 12.586 7.92147 11.5486 7.92147 10.4669C7.92147 9.38525 8.35117 8.34787 9.11604 7.58299ZM12 7.76864C11.2844 7.76864 10.598 8.05292 10.092 8.55895C9.58597 9.06498 9.30169 9.75131 9.30169 10.4669C9.30169 11.1826 9.58597 11.8689 10.092 12.3749C10.598 12.881 11.2844 13.1653 12 13.1653C12.7156 13.1653 13.402 12.881 13.908 12.3749C14.414 11.8689 14.6983 11.1826 14.6983 10.4669C14.6983 9.75131 14.414 9.06498 13.908 8.55895C13.402 8.05292 12.7156 7.76864 12 7.76864Z" fill="#5C5F6A"/>
<path fill-rule="evenodd" clip-rule="evenodd" d="M12 16.5804C10.9559 16.5804 9.9293 16.849 9.01897 17.3603C8.10864 17.8717 7.34516 18.6087 6.80193 19.5003C6.60364 19.8258 6.17902 19.9289 5.85353 19.7307C5.52804 19.5324 5.42493 19.1077 5.62323 18.7823C6.28964 17.6884 7.22624 16.7843 8.343 16.157C9.45975 15.5297 10.7191 15.2002 12 15.2002C13.2809 15.2002 14.5402 15.5297 15.657 16.157C16.7738 16.7843 17.7104 17.6884 18.3768 18.7823C18.5751 19.1077 18.472 19.5324 18.1465 19.7307C17.821 19.9289 17.3964 19.8258 17.1981 19.5003C16.6548 18.6087 15.8914 17.8717 14.981 17.3603C14.0707 16.849 13.0441 16.5804 12 16.5804Z" fill="#5C5F6A"/>
<path fill-rule="evenodd" clip-rule="evenodd" d="M5.28249 5.78249C7.06408 4.00089 9.48044 3 12 3C14.5196 3 16.9359 4.00089 18.7175 5.78249C20.4991 7.56408 21.5 9.98044 21.5 12.5C21.5 15.0196 20.4991 17.4359 18.7175 19.2175C16.9359 20.9991 14.5196 22 12 22C9.48044 22 7.06408 20.9991 5.28249 19.2175C3.50089 17.4359 2.5 15.0196 2.5 12.5C2.5 9.98044 3.50089 7.56408 5.28249 5.78249ZM12 4.38022C9.8465 4.38022 7.7812 5.23569 6.25845 6.75845C4.73569 8.2812 3.88022 10.3465 3.88022 12.5C3.88022 14.6535 4.73569 16.7188 6.25845 18.2416C7.7812 19.7643 9.8465 20.6198 12 20.6198C14.1535 20.6198 16.2188 19.7643 17.7416 18.2416C19.2643 16.7188 20.1198 14.6535 20.1198 12.5C20.1198 10.3465 19.2643 8.2812 17.7416 6.75845C16.2188 5.23569 14.1535 4.38022 12 4.38022Z" fill="#5C5F6A"/>
</svg>
