<svg width="24" height="24" viewBox="0 0 24 24" fill="none" xmlns="http://www.w3.org/2000/svg">
<path d="M13.0959 5.19349C12.9926 5.0062 12.8356 4.84902 12.6422 4.73927C12.4489 4.62952 12.2266 4.57144 12 4.57144C11.7734 4.57144 11.5511 4.62952 11.3578 4.73927C11.1644 4.84902 11.0074 5.0062 10.9041 5.19349L4.13172 17.7707C4.03727 17.9447 3.99229 18.1383 4.00108 18.3331C4.00986 18.5278 4.07211 18.7172 4.18192 18.8833C4.29172 19.0494 4.44543 19.1868 4.62845 19.2821C4.81147 19.3776 5.01772 19.428 5.22762 19.4286H18.7724C18.9823 19.428 19.1886 19.3776 19.3715 19.2821C19.5546 19.1868 19.7083 19.0494 19.8181 18.8833C19.9279 18.7172 19.9902 18.5278 19.9989 18.3331C20.0078 18.1383 19.9627 17.9447 19.8683 17.7707L13.0959 5.19349Z" stroke="#5C5F6A" stroke-width="1.43" stroke-linecap="round" stroke-linejoin="round"/>
<path d="M12 9.9592V13.3878" stroke="#5C5F6A" stroke-width="1.43" stroke-linecap="round" stroke-linejoin="round"/>
<path d="M12.0001 16.6531C11.8198 16.6531 11.6736 16.5069 11.6736 16.3265C11.6736 16.1462 11.8198 16 12.0001 16" stroke="#5C5F6A" stroke-width="1.43" stroke-linecap="round" stroke-linejoin="round"/>
<path d="M12.0001 16.6531C12.1805 16.6531 12.3267 16.5069 12.3267 16.3265C12.3267 16.1462 12.1805 16 12.0001 16" stroke="#5C5F6A" stroke-width="1.43" stroke-linecap="round" stroke-linejoin="round"/>
</svg>
