<svg width="57" height="32" viewBox="0 0 57 32" fill="none" xmlns="http://www.w3.org/2000/svg">
<path fill-rule="evenodd" clip-rule="evenodd" d="M10.224 10L5.03296 21.826H11.248L12.018 19.941H13.779L14.55 21.827H21.39V20.387L22 21.827H25.54L26.149 20.357V21.827H40.376L42.106 19.99L43.726 21.827L51.033 21.842L45.825 15.946L51.033 10H43.839L42.155 11.803L40.586 10H25.109L23.779 13.053L22.42 10H16.219V11.39L15.529 10H10.226H10.224ZM11.427 11.68H14.457L17.9 19.699V11.679H21.219L23.879 17.429L26.329 11.679H29.633V20.166H27.623L27.607 13.516L24.677 20.166H22.88L19.935 13.516V20.166H15.801L15.018 18.263H10.783L10.001 20.164H7.78696L11.427 11.679V11.68ZM39.64 11.68H31.47V20.16H39.513L42.106 17.35L44.605 20.16H47.217L43.42 15.945L47.217 11.679H44.718L42.138 14.458L39.64 11.679V11.68ZM12.9 13.115L11.506 16.505H14.294L12.901 13.115H12.9ZM33.487 14.985V13.435H38.585L40.809 15.912L38.486 18.404H33.487V16.712H37.944V14.986H33.487V14.985Z" fill="#016FD0"/>
</svg>
