<svg width="31" height="18" viewBox="0 0 31 18" fill="none" xmlns="http://www.w3.org/2000/svg">
<path d="M15.017 15.85C13.3637 17.2432 11.27 18.005 9.108 18C4.078 18 0 13.97 0 9.00002C0 4.03002 4.078 2.22141e-05 9.108 2.22141e-05C11.363 2.22141e-05 13.426 0.810022 15.017 2.15002C16.67 0.757051 18.7633 -0.00474228 20.925 2.22141e-05C25.955 2.22141e-05 30.033 4.03002 30.033 9.00002C30.033 13.97 25.955 18 20.925 18C18.7633 18.0048 16.67 17.243 15.017 15.85Z" fill="#ED0006"/>
<path d="M15.017 15.85C16.0186 15.0115 16.8242 13.9636 17.377 12.7801C17.9299 11.5966 18.2166 10.3063 18.217 9.00002C18.217 6.25702 16.975 3.80002 15.017 2.15002C16.67 0.757051 18.7633 -0.00474228 20.925 2.22141e-05C25.955 2.22141e-05 30.033 4.03002 30.033 9.00002C30.033 13.97 25.955 18 20.925 18C18.7633 18.0048 16.67 17.243 15.017 15.85Z" fill="#F9A000"/>
<path d="M15.017 15.85C16.975 14.2 18.217 11.743 18.217 9.00002C18.217 6.25702 16.975 3.80002 15.017 2.15002C14.0154 2.98856 13.2098 4.03647 12.657 5.21996C12.1041 6.40346 11.8174 7.69376 11.817 9.00002C11.817 11.743 13.058 14.2 15.017 15.85Z" fill="#FF5E00"/>
</svg>
