<svg width="43" height="14" viewBox="0 0 43 14" fill="none" xmlns="http://www.w3.org/2000/svg">
<path d="M27.515 7.91772e-05C28.5598 -0.00452076 29.5959 0.191351 30.567 0.577079L30.104 3.50308L29.796 3.36008C29.003 2.9927 28.1355 2.81468 27.262 2.84008C25.919 2.84008 25.316 3.43108 25.302 4.00808C25.302 4.64308 26.032 5.06108 27.222 5.68108C29.182 6.64708 30.09 7.82908 30.077 9.37108C30.049 12.1841 27.725 14.0001 24.155 14.0001C22.629 13.9851 21.159 13.6531 20.361 13.2791L20.837 10.2361L21.285 10.4531C22.391 10.9581 23.119 11.1731 24.477 11.1731C25.457 11.1731 26.507 10.7551 26.52 9.84808C26.52 9.25608 26.073 8.82408 24.757 8.16008C23.469 7.51108 21.747 6.43008 21.775 4.48408C21.789 1.84508 24.155 7.91772e-05 27.515 7.91772e-05ZM14.831 13.7981H18.233L20.361 0.246079H16.959L14.831 13.7981Z" fill="#00579F"/>
<path fill-rule="evenodd" clip-rule="evenodd" d="M39.288 0.246079H36.657C35.845 0.246079 35.229 0.491079 34.878 1.37008L29.825 13.7981H33.395L34.109 11.7651H38.477C38.575 12.2411 38.883 13.7981 38.883 13.7981H42.033L39.288 0.246079ZM35.088 8.99608L36.448 5.20608C36.441 5.21608 36.486 5.09008 36.552 4.90108C36.65 4.62108 36.795 4.20808 36.895 3.90808L37.132 5.07508C37.132 5.07508 37.777 8.31908 37.917 8.99708H35.089L35.088 8.99608Z" fill="#00579F"/>
<path d="M8.65696 9.48708L11.989 0.246079H15.587L10.239 13.7841H6.64096L3.58896 1.93208C5.74496 3.10008 7.67696 5.45008 8.29296 7.61208L8.65696 9.48708Z" fill="#00579F"/>
<path d="M5.56296 0.246079H0.0889592L0.032959 0.519079C4.30296 1.64408 7.13096 4.35508 8.29296 7.61308L7.10296 1.38508C6.90696 0.519079 6.30496 0.275079 5.56296 0.245079V0.246079Z" fill="#FAA61A"/>
</svg>
