<svg width="24" height="25" viewBox="0 0 24 25" fill="none" xmlns="http://www.w3.org/2000/svg">
<path d="M15.0853 16.344V6.89276C15.0853 6.52338 14.9347 6.16912 14.6667 5.90793C14.3987 5.64674 14.0352 5.5 13.6562 5.5H4.42903C4.05002 5.5 3.68655 5.64674 3.41855 5.90793C3.15056 6.16912 3 6.52338 3 6.89276V16.1212C3 16.4906 3.15056 16.8448 3.41855 17.106C3.68655 17.3672 4.05002 17.5139 4.42903 17.5139H5.50079M21 12.0919H15.0867M19.0765 17.2535H19.5695C19.9485 17.2535 20.312 17.1067 20.58 16.8456C20.848 16.5844 20.9986 16.2301 20.9986 15.8607V11.6825L19.0079 7.70891C18.8903 7.47493 18.7077 7.27781 18.4808 7.13993C18.254 7.00206 17.992 6.92897 17.7247 6.92897H15.3425M14.2536 17.5139H10.0565M5.57225 17.5557C5.57225 18.0714 5.78242 18.5659 6.15654 18.9305C6.53066 19.2952 7.03808 19.5 7.56716 19.5C8.09625 19.5 8.60366 19.2952 8.97778 18.9305C9.3519 18.5659 9.56208 18.0714 9.56208 17.5557C9.56208 17.0401 9.3519 16.5455 8.97778 16.1809C8.60366 15.8163 8.09625 15.6114 7.56716 15.6114C7.03808 15.6114 6.53066 15.8163 6.15654 16.1809C5.78242 16.5455 5.57225 17.0401 5.57225 17.5557ZM14.628 17.5557C14.628 18.0714 14.8382 18.5659 15.2123 18.9305C15.5864 19.2952 16.0938 19.5 16.6229 19.5C17.152 19.5 17.6594 19.2952 18.0335 18.9305C18.4076 18.5659 18.6178 18.0714 18.6178 17.5557C18.6178 17.0401 18.4076 16.5455 18.0335 16.1809C17.6594 15.8163 17.152 15.6114 16.6229 15.6114C16.0938 15.6114 15.5864 15.8163 15.2123 16.1809C14.8382 16.5455 14.628 17.0401 14.628 17.5557Z" stroke="#5C5F6A" stroke-width="1.43" stroke-linecap="round" stroke-linejoin="round"/>
</svg>
