<svg width="24" height="25" viewBox="0 0 24 25" fill="none" xmlns="http://www.w3.org/2000/svg">
<path fill-rule="evenodd" clip-rule="evenodd" d="M17.9234 4.13778C18.2024 3.85884 18.6546 3.85884 18.9336 4.13778L21.7907 6.99493C22.0697 7.27387 22.0697 7.72613 21.7907 8.00508C21.5118 8.28402 21.0595 8.28402 20.7806 8.00508L18.4285 5.65301L10.5336 13.5479C10.2546 13.8269 9.80236 13.8269 9.52342 13.5479C9.24447 13.269 9.24447 12.8167 9.52342 12.5378L17.9234 4.13778Z" fill="#5C5F6A"/>
<path fill-rule="evenodd" clip-rule="evenodd" d="M14.7092 7.35207C14.9882 7.07312 15.4404 7.07312 15.7194 7.35207L18.2194 9.85207C18.4983 10.131 18.4983 10.5833 18.2194 10.8622C17.9404 11.1412 17.4882 11.1412 17.2092 10.8622L14.7092 8.36222C14.4303 8.08328 14.4303 7.63102 14.7092 7.35207Z" fill="#5C5F6A"/>
<path fill-rule="evenodd" clip-rule="evenodd" d="M2 16.0714C2 13.31 4.23858 11.0714 7 11.0714C9.76142 11.0714 12 13.31 12 16.0714C12 18.8329 9.76141 21.0714 7 21.0714C4.23859 21.0714 2 18.8329 2 16.0714ZM7 12.5C5.02756 12.5 3.42857 14.099 3.42857 16.0714C3.42857 18.0439 5.02755 19.6429 7 19.6429C8.97245 19.6429 10.5714 18.0439 10.5714 16.0714C10.5714 14.099 8.97244 12.5 7 12.5Z" fill="#5C5F6A"/>
</svg>
