<svg width="24" height="25" viewBox="0 0 24 25" fill="none" xmlns="http://www.w3.org/2000/svg">
<path d="M14.8572 16.5V18.7857C14.8572 19.0888 14.7368 19.3795 14.5225 19.5938C14.3082 19.8081 14.0175 19.9286 13.7144 19.9286H5.71439C5.41128 19.9286 5.1206 19.8081 4.90627 19.5938C4.69194 19.3795 4.57153 19.0888 4.57153 18.7857V6.21429C4.57153 5.91118 4.69194 5.62049 4.90627 5.40616C5.1206 5.19184 5.41128 5.07143 5.71439 5.07143H13.7144C14.0175 5.07143 14.3082 5.19184 14.5225 5.40616C14.7368 5.62049 14.8572 5.91118 14.8572 6.21429V8.5M11.4287 12.5H19.4287M19.4287 12.5L17.143 10.2143M19.4287 12.5L17.143 14.7857" stroke="#5C5F6A" stroke-width="1.43" stroke-linecap="round" stroke-linejoin="round"/>
</svg>
