<svg width="24" height="25" viewBox="0 0 24 25" fill="none" xmlns="http://www.w3.org/2000/svg">
<path d="M12.0391 11C14.1988 11 15.9497 9.32107 15.9497 7.25C15.9497 5.17894 14.1988 3.5 12.0391 3.5C9.87932 3.5 8.12848 5.17894 8.12848 7.25C8.12848 9.32107 9.87932 11 12.0391 11Z" stroke="#5C5F6A" stroke-width="1.42857" stroke-linecap="round" stroke-linejoin="round"/>
<path d="M5 21.5V20.6869C5.01245 19.5436 5.32689 18.4219 5.91394 17.4267C6.501 16.4315 7.34151 15.5953 8.35697 14.996C9.37244 14.3968 10.5297 14.0541 11.7207 14C11.8269 13.9952 11.9331 13.9927 12.0391 13.9925C12.1451 13.9927 12.2513 13.9952 12.3574 14C13.5484 14.0541 14.7057 14.3968 15.7212 14.996C16.3051 15.3406 16.8312 15.7636 17.2845 16.25" stroke="#5C5F6A" stroke-width="1.42857" stroke-linecap="round" stroke-linejoin="round"/>
</svg>
