<svg width="180" height="41" viewBox="0 0 180 41" fill="none" xmlns="http://www.w3.org/2000/svg">
<rect y="0.5" width="40" height="40" rx="20" fill="#0E1422"/>
<path d="M24.4769 11.8485L18.204 8.05509C17.6119 7.69292 16.9388 7.5015 16.2532 7.50031C14.2094 7.50031 12.3348 9.21225 12.3348 11.605V25.8073L24.4769 18.4669C26.9083 16.9947 26.9083 13.32 24.4769 11.8485ZM15.8484 18.948V11.3679L22.1163 15.1567L15.8484 18.948Z" fill="white"/>
<path d="M27.8489 33.4844C27.8489 33.5273 15.9908 33.466 15.9908 33.466L14.9434 33.3425C13.2467 33.144 11.9443 31.6233 12.002 29.8346C12.002 29.7917 12.0057 29.7519 12.0081 29.7103C12.0547 28.9365 12.3261 28.1961 12.7858 27.5885C12.9725 27.3461 13.2009 27.1425 13.4592 26.9882L22.4782 21.5725C24.3414 20.4535 25.8931 20.062 26.6999 18.0341C26.9974 17.2757 27.126 16.4562 27.0757 15.6379L27.0446 15.0865L27.9651 20.4204C28.083 21.3264 27.9013 22.2537 27.4211 23.0169C27.1326 23.4785 26.7475 23.8653 26.2951 24.1479L15.8295 29.3943C15.8191 29.4006 15.809 29.4074 15.7993 29.4149C15.5127 29.6293 15.6896 30.1069 16.0403 30.0867L24.7515 30.1403C26.4433 30.0417 27.8526 31.7112 27.8489 33.4844Z" fill="white"/>
<path d="M54.4 14.58H64.54V18.1H58.04V19.86H63.44V23.2H58.04V24.98H64.54V28.5H54.4V14.58ZM68.7247 23.18C68.7247 24.06 68.9447 24.8733 69.3847 25.62C69.838 26.3667 70.438 26.96 71.1847 27.4C71.9447 27.84 72.7647 28.06 73.6447 28.06C74.5514 28.06 75.3714 27.88 76.1047 27.52C76.838 27.16 77.4114 26.66 77.8247 26.02C78.2514 25.38 78.4714 24.66 78.4847 23.86H79.2047C79.2047 24.78 78.958 25.62 78.4647 26.38C77.9847 27.1267 77.318 27.72 76.4647 28.16C75.6247 28.5867 74.6847 28.8 73.6447 28.8C72.6314 28.8 71.6914 28.5467 70.8247 28.04C69.958 27.5333 69.2714 26.8533 68.7647 26C68.258 25.1333 68.0047 24.1933 68.0047 23.18V19.9C68.0047 18.8867 68.2514 17.9533 68.7447 17.1C69.2514 16.2333 69.9314 15.5467 70.7847 15.04C71.6514 14.5333 72.5914 14.28 73.6047 14.28C74.6314 14.28 75.5647 14.5 76.4047 14.94C77.258 15.3667 77.9314 15.96 78.4247 16.72C78.918 17.4667 79.1647 18.3 79.1647 19.22H78.4447C78.4314 18.42 78.2114 17.7 77.7847 17.06C77.358 16.42 76.778 15.92 76.0447 15.56C75.3247 15.2 74.5114 15.02 73.6047 15.02C72.7247 15.02 71.9114 15.24 71.1647 15.68C70.418 16.12 69.8247 16.7133 69.3847 17.46C68.9447 18.2067 68.7247 19.02 68.7247 19.9V23.18ZM87.6094 14.28C88.6494 14.28 89.6094 14.54 90.4894 15.06C91.3694 15.5667 92.0627 16.26 92.5694 17.14C93.0894 18.02 93.3494 18.98 93.3494 20.02V23.06C93.3494 24.1 93.0894 25.06 92.5694 25.94C92.0627 26.82 91.3694 27.52 90.4894 28.04C89.6094 28.5467 88.6494 28.8 87.6094 28.8C86.5694 28.8 85.6094 28.5467 84.7294 28.04C83.8494 27.52 83.1494 26.82 82.6294 25.94C82.1227 25.06 81.8694 24.1 81.8694 23.06V20.02C81.8694 18.98 82.1227 18.02 82.6294 17.14C83.1494 16.26 83.8494 15.5667 84.7294 15.06C85.6094 14.54 86.5694 14.28 87.6094 14.28ZM82.6094 23.06C82.6094 23.9667 82.8294 24.8067 83.2694 25.58C83.7227 26.34 84.3294 26.9467 85.0894 27.4C85.8627 27.84 86.7027 28.06 87.6094 28.06C88.516 28.06 89.3494 27.84 90.1094 27.4C90.8827 26.9467 91.4894 26.34 91.9294 25.58C92.3827 24.8067 92.6094 23.9667 92.6094 23.06V20.02C92.6094 19.1133 92.3827 18.28 91.9294 17.52C91.4894 16.7467 90.8827 16.14 90.1094 15.7C89.3494 15.2467 88.516 15.02 87.6094 15.02C86.7027 15.02 85.8627 15.2467 85.0894 15.7C84.3294 16.14 83.7227 16.7467 83.2694 17.52C82.8294 18.28 82.6094 19.1133 82.6094 20.02V23.06ZM96.8341 28.5H96.0941V14.58H96.8941L101.754 23.16L106.594 14.58H107.334V28.5H106.594V16.06L102.094 24H101.394L96.8341 15.96V28.5ZM110.939 28.5H110.199V14.58H110.999L115.859 23.16L120.699 14.58H121.439V28.5H120.699V16.06L116.199 24H115.499L110.939 15.96V28.5ZM125.123 14.58H134.923V15.32H125.863V20.96H133.743V21.7H125.863V27.76H134.923V28.5H125.123V14.58ZM147.048 15.04C147.848 15.4133 148.475 15.9667 148.928 16.7C149.395 17.4333 149.628 18.2467 149.628 19.14C149.628 20.18 149.308 21.1133 148.668 21.94C148.041 22.7533 147.235 23.2933 146.248 23.56L149.788 28.5H148.908L145.488 23.7L144.848 23.72H139.828V28.5H139.088V14.58H144.388C144.975 14.58 145.475 14.62 145.888 14.7C146.315 14.7667 146.701 14.88 147.048 15.04ZM145.048 22.98C145.741 22.98 146.381 22.8067 146.968 22.46C147.555 22.1133 148.021 21.6467 148.368 21.06C148.715 20.4733 148.888 19.8333 148.888 19.14C148.888 18.3667 148.681 17.6667 148.268 17.04C147.868 16.4133 147.308 15.9467 146.588 15.64C146.068 15.4267 145.335 15.32 144.388 15.32H139.828V22.98H145.048ZM153.353 23.18C153.353 24.06 153.573 24.8733 154.013 25.62C154.466 26.3667 155.066 26.96 155.813 27.4C156.573 27.84 157.393 28.06 158.273 28.06C159.179 28.06 159.999 27.88 160.733 27.52C161.466 27.16 162.039 26.66 162.453 26.02C162.879 25.38 163.099 24.66 163.113 23.86H163.833C163.833 24.78 163.586 25.62 163.093 26.38C162.613 27.1267 161.946 27.72 161.093 28.16C160.253 28.5867 159.313 28.8 158.273 28.8C157.259 28.8 156.319 28.5467 155.453 28.04C154.586 27.5333 153.899 26.8533 153.393 26C152.886 25.1333 152.633 24.1933 152.633 23.18V19.9C152.633 18.8867 152.879 17.9533 153.373 17.1C153.879 16.2333 154.559 15.5467 155.413 15.04C156.279 14.5333 157.219 14.28 158.233 14.28C159.259 14.28 160.193 14.5 161.033 14.94C161.886 15.3667 162.559 15.96 163.053 16.72C163.546 17.4667 163.793 18.3 163.793 19.22H163.073C163.059 18.42 162.839 17.7 162.413 17.06C161.986 16.42 161.406 15.92 160.673 15.56C159.953 15.2 159.139 15.02 158.233 15.02C157.353 15.02 156.539 15.24 155.793 15.68C155.046 16.12 154.453 16.7133 154.013 17.46C153.573 18.2067 153.353 19.02 153.353 19.9V23.18ZM167.438 14.58H177.238V15.32H168.178V20.96H176.058V21.7H168.178V27.76H177.238V28.5H167.438V14.58Z" fill="#0E1422"/>
</svg>
