<svg width="24" height="24" viewBox="0 0 24 24" fill="none" xmlns="http://www.w3.org/2000/svg">
<path fill-rule="evenodd" clip-rule="evenodd" d="M3.37499 11.635C8.74332 9.29583 12.3233 7.75417 14.115 7.00917C19.2292 4.88167 20.2917 4.5125 20.985 4.5C21.1367 4.49667 21.4775 4.53417 21.6983 4.71333C21.8842 4.865 21.9358 5.06917 21.96 5.2125C21.985 5.35583 22.015 5.68167 21.9908 5.9375C21.7142 8.84917 20.515 15.9158 19.905 19.1775C19.6467 20.5575 19.1383 21.02 18.6467 21.0658C17.5767 21.1642 16.7642 20.3592 15.7283 19.68C14.1075 18.6175 13.1925 17.9558 11.6192 16.9192C9.80082 15.7208 10.9792 15.0625 12.0158 13.9858C12.2867 13.7042 16.9992 9.41833 17.09 9.02917C17.1017 8.98083 17.1117 8.8 17.0042 8.70417C16.8958 8.60833 16.7375 8.64083 16.6233 8.66667C16.46 8.70417 13.8708 10.4158 8.85499 13.8017C8.11999 14.3058 7.45415 14.5517 6.85749 14.5392C6.19999 14.525 4.93499 14.1675 3.99499 13.8617C2.84166 13.4867 1.92499 13.2883 2.00499 12.6517C2.04666 12.32 2.50332 11.9808 3.37499 11.635Z" fill="#5C5F6A"/>
</svg>
