<svg width="24" height="24" viewBox="0 0 24 24" fill="none" xmlns="http://www.w3.org/2000/svg">
<g clip-path="url(#clip0_3082_2346)">
<path d="M7.48244 8.7675C7.65661 8.215 8.13077 7.55333 8.47411 7.38417C8.62661 7.30917 8.73994 7.2925 9.10994 7.2925C9.54494 7.2925 9.56661 7.29667 9.67994 7.40917C9.75327 7.48833 9.95327 7.91417 10.2408 8.6025C10.4841 9.19417 10.6849 9.69833 10.6849 9.725C10.6849 9.84667 10.4408 10.2333 10.1624 10.56C9.97077 10.7825 9.85827 10.9517 9.85827 11.0125C9.85827 11.0692 9.99744 11.33 10.1716 11.5875C10.5933 12.2183 11.3716 13.0008 11.9774 13.4017C12.4508 13.715 13.2958 14.1242 13.4649 14.1242C13.5916 14.1242 13.8224 13.8975 14.2916 13.3058C14.4833 13.0667 14.6533 12.8933 14.7183 12.88C14.7749 12.8625 14.9141 12.8842 15.0266 12.9275C15.3533 13.0542 17.0024 13.8583 17.0899 13.9367C17.2591 14.0933 17.1208 14.99 16.8674 15.355C16.4808 15.9217 15.3758 16.4042 14.6483 16.33C14.1183 16.2733 12.8649 15.86 12.0508 15.4725C11.0066 14.9725 9.90577 14.0583 9.01411 12.9408C8.50494 12.305 7.99161 11.5308 7.76994 11.0692C7.46994 10.4433 7.36077 9.96 7.39077 9.4025C7.40411 9.16333 7.44744 8.87667 7.48244 8.7675Z" fill="#5C5F6A"/>
<path fill-rule="evenodd" clip-rule="evenodd" d="M2.50513 9.91657C3.31847 5.7424 6.6468 2.63323 10.9243 2.0499C11.5118 1.96657 13.161 1.99323 13.731 2.08823C14.3268 2.19323 15.1143 2.3974 15.5976 2.5799C18.791 3.76823 21.1501 6.51323 21.8193 9.81573C22.111 11.2566 22.046 12.9449 21.6501 14.3632C20.706 17.7216 17.9643 20.3674 14.5576 21.2116C12.3385 21.7599 10.006 21.5199 7.90513 20.5366L7.39097 20.2932L4.70263 21.1507C3.22763 21.6207 2.00847 21.9949 2.00013 21.9857C1.9918 21.9774 2.37513 20.8066 2.85763 19.3924L3.73263 16.8124L3.3793 16.1124C2.40013 14.1407 2.10013 12.0082 2.5043 9.9149L2.50513 9.91657ZM20.1485 9.57657C19.2918 6.44323 16.5676 4.0549 13.361 3.6199C11.6118 3.3849 9.96263 3.65073 8.4443 4.41657C4.76347 6.27823 3.0093 10.5341 4.33597 14.3807C4.50597 14.8724 4.96263 15.7991 5.24597 16.2249L5.4718 16.5649L4.96763 18.0441C4.79237 18.5465 4.62402 19.0512 4.46263 19.5582C4.46263 19.5799 5.16263 19.3716 6.01597 19.1016C6.54208 18.9307 7.06988 18.7652 7.5993 18.6049C7.61763 18.6049 7.7868 18.6966 7.9743 18.8049C9.99763 20.0107 12.521 20.2716 14.7968 19.5149C16.1089 19.0784 17.2906 18.32 18.2339 17.3089C19.1773 16.2979 19.8521 15.0665 20.1968 13.7274C20.531 12.3621 20.5144 10.9345 20.1485 9.5774V9.57657Z" fill="#5C5F6A"/>
</g>
<defs>
<clipPath id="clip0_3082_2346">
<rect width="20" height="20" fill="white" transform="translate(2 2)"/>
</clipPath>
</defs>
</svg>
